<?xml version="1.0" encoding="utf-8"?>
<!-- Generator: Adobe Illustrator 21.1.0, SVG Export Plug-In . SVG Version: 6.00 Build 0)  -->
<svg version="1.1" id="Layer_1" xmlns="http://www.w3.org/2000/svg" xmlns:xlink="http://www.w3.org/1999/xlink" x="0px" y="0px"
	 viewBox="0 0 69.7 43.3" style="enable-background:new 0 0 69.7 43.3;" xml:space="preserve">
<style type="text/css">
	.st0{fill:none;stroke:#D6D8DE;stroke-width:1.7;stroke-miterlimit:10;}
	.st1{fill:#727782;}
	.st2{fill:#303645;}
	.st3{fill:#07C1E4;}
</style>
<title>Asset 16</title>
<path class="st0" d="M36.2,30.2h-5.8 M32.5,34.3l4.1-4.1l-4.1-4.1"/>
<path class="st1" d="M68.9,23.7H42.7c-0.4,0-0.7-0.3-0.7-0.7l0,0v-6.3c0-0.4,0.3-0.7,0.7-0.7l0,0h26.1c0.4,0,0.7,0.3,0.7,0.7V23
	C69.6,23.3,69.2,23.7,68.9,23.7z M43.5,22.3h24.7v-4.9H43.5V22.3z"/>
<rect x="49.2" y="19.1" class="st2" width="16.8" height="1.4"/>
<path class="st1" d="M46.3,21c-0.6,0-1.2-0.5-1.2-1.2s0.5-1.2,1.2-1.2s1.2,0.5,1.2,1.2l0,0C47.4,20.4,46.9,20.9,46.3,21z"/>
<path class="st1" d="M69,33.6H42.9c-0.4,0-0.7-0.3-0.7-0.7l0,0v-6.3c0-0.4,0.3-0.7,0.7-0.7l0,0H69c0.4,0,0.7,0.3,0.7,0.7v6.3
	C69.7,33.3,69.4,33.6,69,33.6z M43.6,32.2h24.7v-4.9H43.6V32.2z"/>
<rect x="49.3" y="29.1" class="st2" width="16.8" height="1.4"/>
<path class="st1" d="M46.4,30.9c-0.6,0-1.2-0.5-1.1-1.2c0-0.6,0.5-1.2,1.2-1.1s1.2,0.5,1.1,1.2c0,0,0,0,0,0
	C47.5,30.4,47,30.9,46.4,30.9z"/>
<path class="st1" d="M69,43.3H42.9c-0.4,0-0.7-0.3-0.7-0.7v0v-6.3c0-0.4,0.3-0.7,0.7-0.7l0,0H69c0.4,0,0.7,0.3,0.7,0.7v6.3
	C69.7,43,69.4,43.3,69,43.3z M43.6,41.9h24.7V37H43.6V41.9z"/>
<rect x="49.3" y="38.7" class="st2" width="16.8" height="1.4"/>
<path class="st1" d="M46.4,40.6c-0.6,0-1.2-0.5-1.2-1.2s0.5-1.2,1.2-1.2s1.2,0.5,1.2,1.2l0,0C47.5,40.1,47,40.6,46.4,40.6z"/>
<g>
	<g>
		<g>
			<rect x="14.7" y="8.1" class="st3" width="1.7" height="14.8"/>
		</g>
		<g>
			<rect x="8.1" y="14.7" class="st3" width="14.8" height="1.7"/>
		</g>
	</g>
	<g>
		<path class="st3" d="M15.5,31C7,31,0,24.1,0,15.5S7,0,15.5,0C24.1,0,31,7,31,15.5S24.1,31,15.5,31z M15.5,1.7
			C7.9,1.7,1.7,7.9,1.7,15.5s6.2,13.8,13.8,13.8s13.8-6.2,13.8-13.8S23.1,1.7,15.5,1.7z"/>
	</g>
</g>
</svg>
