<?xml version="1.0" encoding="utf-8"?>
<!-- Generator: Adobe Illustrator 21.1.0, SVG Export Plug-In . SVG Version: 6.00 Build 0)  -->
<svg version="1.1" id="Layer_1" xmlns="http://www.w3.org/2000/svg" xmlns:xlink="http://www.w3.org/1999/xlink" x="0px" y="0px"
	 viewBox="0 0 93.4 88.4" style="enable-background:new 0 0 93.4 88.4;" xml:space="preserve">
<style type="text/css">
	.st0{fill:#72BE45;}
	.st1{fill:#A9DFF4;}
	.st2{fill:#089AD7;}
	.st3{fill:#FFFFFF;}
</style>
<path class="st0" d="M70,24L80.3,6.3c0.6-1,1.8-1.3,2.7-0.7c1,0.6,1.3,1.8,0.7,2.7L73.1,26.7C82,35.3,82,46.3,82,46.3v20
	c0,0,0,20-40,20s-40-20-40-20v-20c0,0,0-11,8.9-19.7L0.3,8.3C-0.3,7.4,0,6.2,1,5.6C2,5,3.2,5.4,3.7,6.3L14,24
	c5.9-4.4,14.8-7.7,28-7.7C55.3,16.3,64.1,19.6,70,24z"/>
<path class="st1" d="M79.4,18.7L89.6,1c0.6-1,1.8-1.3,2.7-0.7c1,0.6,1.3,1.8,0.7,2.7L82.5,21.3C91.3,30,91.3,41,91.3,41v20
	c0,0,0,20-40,20s-40-20-40-20V41c0,0,0-11,8.9-19.7L9.6,3C9,2,9.4,0.8,10.3,0.3c1-0.6,2.2-0.2,2.7,0.7l10.2,17.7
	c5.9-4.4,14.8-7.7,28-7.7C64.6,11,73.5,14.3,79.4,18.7z"/>
<path class="st2" d="M77.7,26.1L88,8.4c0.6-1,1.8-1.3,2.7-0.7s1.3,1.8,0.7,2.7L80.8,28.7c8.9,8.7,8.9,19.7,8.9,19.7v20
	c0,0,0,20-40,20s-40-20-40-20v-20c0,0,0-11,8.9-19.7L7.9,10.4c-0.6-1-0.2-2.2,0.7-2.7c1-0.6,2.2-0.2,2.7,0.7l10.2,17.7
	c5.9-4.4,14.8-7.7,28-7.7C62.9,18.4,71.8,21.7,77.7,26.1z"/>
<path class="st3" d="M19.7,58.4c0-8.3,6.7-15,15-15h30c8.3,0,15,6.7,15,15c0,8.3-6.7,15-15,15h-30C26.4,73.4,19.7,66.7,19.7,58.4z"
	/>
<title>bot3_happy</title>
<path class="st2" d="M33.1,59.6c0.1-0.1,0.3-0.3,0.7-0.6c0.6-0.4,1.2-0.6,1.8-0.6l-0.1,0c0.7,0,1.3,0.2,1.8,0.6
	c0.4,0.2,0.6,0.5,0.7,0.6l1.2,1.6l3.2-2.4l-1.2-1.6c-0.3-0.4-0.8-0.9-1.5-1.4c-1.2-0.8-2.5-1.3-4-1.4l-0.1,0c-1.5,0-2.8,0.6-4,1.4
	c-0.7,0.5-1.2,1-1.5,1.4l-1.2,1.6l3.2,2.5L33.1,59.6z M61.1,59.6c0.1-0.1,0.3-0.3,0.7-0.6c0.6-0.4,1.2-0.6,1.8-0.6l-0.1,0
	c0.7,0,1.3,0.2,1.8,0.6c0.4,0.2,0.6,0.5,0.7,0.6l1.2,1.6l3.2-2.4l-1.2-1.6c-0.3-0.4-0.8-0.9-1.5-1.4c-1.2-0.8-2.5-1.3-4-1.4l-0.1,0
	c-1.5,0-2.8,0.6-4,1.4c-0.7,0.5-1.2,1-1.5,1.4l-1.2,1.6l3.2,2.5L61.1,59.6z"/>
<path class="st0" d="M35.7,59.8c0.1-0.1,0.3-0.3,0.7-0.6c0.6-0.4,1.2-0.6,1.8-0.6l-0.1,0c0.7,0,1.3,0.2,1.8,0.6
	c0.4,0.2,0.6,0.5,0.7,0.6l1.2,1.6l3.2-2.4l-1.2-1.6c-0.3-0.4-0.8-0.9-1.5-1.4c-1.2-0.8-2.5-1.3-4-1.4l-0.1,0c-1.5,0-2.8,0.6-4,1.4
	c-0.7,0.5-1.2,1-1.5,1.4l-1.2,1.6l3.2,2.5L35.7,59.8z M63.7,59.8c0.1-0.1,0.3-0.3,0.7-0.6c0.6-0.4,1.2-0.6,1.8-0.6l-0.1,0
	c0.7,0,1.3,0.2,1.8,0.6c0.4,0.2,0.6,0.5,0.7,0.6l1.2,1.6l3.2-2.4l-1.2-1.6c-0.3-0.4-0.8-0.9-1.5-1.4c-1.2-0.8-2.5-1.3-4-1.4l-0.1,0
	c-1.5,0-2.8,0.6-4,1.4c-0.7,0.5-1.2,1-1.5,1.4l-1.2,1.6l3.2,2.5L63.7,59.8z"/>
</svg>
