<?xml version="1.0" encoding="UTF-8" standalone="no"?>
<svg width="116px" height="121px" viewBox="0 0 116 121" version="1.1" xmlns="http://www.w3.org/2000/svg" xmlns:xlink="http://www.w3.org/1999/xlink">
    <!-- Generator: Sketch 43.2 (39069) - http://www.bohemiancoding.com/sketch -->
    <title>Shape</title>
    <desc>Created with Sketch.</desc>
    <defs></defs>
    <g id="tests" stroke="none" stroke-width="1" fill="none" fill-rule="evenodd">
        <path d="M61.9635623,0.251 C32.4191677,0.251 8.46892337,24.201459 8.46892337,53.745639 C8.46892337,65.7290254 12.4097931,76.7921815 19.0654173,85.7100654 L0.936,119.807099 C0.936,119.807099 1.1165257,120.397189 1.70682973,120.216663 L35.6510286,100.328998 C43.4207175,104.7273 52.3982759,107.240707 61.9635623,107.240707 C91.5079569,107.240707 115.458201,83.2902482 115.458201,53.745639 C115.458201,24.201459 91.5079569,0.251 61.9635623,0.251 Z M87.5501294,62.5424569 L63.6514025,85.5583036 C63.19118,86.0187408 62.5770492,86.2486374 61.9633477,86.2486374 C61.3496461,86.2486374 60.7357299,86.0187408 60.2755075,85.5583036 L36.3385718,62.4651807 C36.0316137,62.1964314 27.592198,54.4864168 27.592198,45.2798206 C27.592198,34.0400026 34.4588291,27.3270652 45.9285437,27.3270652 C52.6416958,27.3270652 58.9328341,32.620697 61.9633477,35.6130018 C64.9940759,32.620697 71.2849996,27.3270652 77.9983663,27.3270652 C89.4680809,27.3270652 96.3349266,34.0400026 96.3349266,45.2798206 C96.3349266,54.4864168 87.8952963,62.1964314 87.5501294,62.5424569 Z" id="Shape" fill="#00CCEA" fill-rule="nonzero"></path>
    </g>
</svg>