<svg xmlns="http://www.w3.org/2000/svg" xmlns:xlink="http://www.w3.org/1999/xlink"><symbol viewBox="0 0 22 20" id="announcement" xmlns="http://www.w3.org/2000/svg"><title>announcement</title><path d="M12.953 14.22l-4.47 1.25-3.828 1.073-.22.06-.89-1.302.134-.184L13.34 1.95l6.982 10.207-7.37 2.063zm-2.99 2.922l-.205-.723 2.562-.718.2.7-2.556.74zm-6.45 1.317l-2.02-2.955.635-.44.046.066L4.1 17.95l.048.068-.634.44zm18.336-6.29L13.874.51a.626.626 0 0 0-.504-.272.612.612 0 0 0-.512.255L2.93 14.02l-.127-.185a.623.623 0 0 0-.868-.162L.27 14.826a.632.632 0 0 0-.16.874l2.73 3.99a.628.628 0 0 0 .514.272c.125 0 .25-.038.354-.11l1.663-1.154a.629.629 0 0 0 .16-.874l-.126-.186 3.15-.882.382 1.338c.08.275.33.455.6.455.057 0 .115-.01.173-.026l3.755-1.087a.632.632 0 0 0 .43-.778l-.37-1.294 7.978-2.235a.623.623 0 0 0 .42-.39.635.635 0 0 0-.074-.57z"/><path d="M12.944 4.298a.53.53 0 0 0-.746.098l-7.245 9.47a.536.536 0 0 0 .421.86c.16 0 .317-.07.422-.208l7.245-9.47a.537.537 0 0 0-.096-.75"/></symbol><symbol id="answer" viewBox="0 0 20 20" xmlns="http://www.w3.org/2000/svg"><style>.bst0{fill:none;stroke:#000;stroke-miterlimit:10}</style><title>ic_like copy 2</title><path class="bst0" d="M10 1C5 1 1 4.5 1 8.9c0 2.5 1.3 4.7 3.3 6.2l.2 2.9c0 .5.4.7.8.4l2.4-1.8c.7.2 1.5.2 2.2.2 5 0 9-3.5 9-7.9S15 1 10 1z"/></symbol><symbol id="dashboard" viewBox="0 0 20 20" xmlns="http://www.w3.org/2000/svg"><style>.cst0{fill:none;stroke:#000;stroke-width:.25;stroke-miterlimit:10}</style><title>Dashboard</title><path class="cst0" d="M280 9.3c-.3-.2-.6-.3-1-.3-1.1 0-2 .9-2 2v.2c-2.3.5-4 1.4-4-1.2 0-3.3 2.7-6 6-6s6 2.7 6 6c0 2.6-1.7 1.7-4 1.2V11c0-.4-.1-.7-.3-1l2.5-2.5c.2-.2.2-.5 0-.7-.2-.2-.5-.2-.7 0L280 9.3zm-1 8.7c4.4 0 8-3.6 8-8s-3.6-8-8-8-8 3.6-8 8 3.6 8 8 8zm0-6c.6 0 1-.4 1-1s-.4-1-1-1-1 .4-1 1 .4 1 1 1z" transform="translate(-269)"/></symbol><symbol viewBox="0 0 16 20" id="document" xmlns="http://www.w3.org/2000/svg"><title>document</title><path d="M12.004 15.19h-8.28a.566.566 0 0 0 0 1.133h8.28a.567.567 0 0 0 0-1.132zm0-3.056h-8.28a.565.565 0 1 0 0 1.131h8.28a.566.566 0 1 0 0-1.131zM3.158 9.642c0 .312.253.566.566.566h8.28a.567.567 0 0 0 0-1.132h-8.28a.565.565 0 0 0-.566.566zm11.438 9.227H1.13V1.13h9.553v3.862c0 .312.253.565.566.565h3.346v13.31zm-2.78-16.824l2.113 2.382h-2.115V2.046zm3.77 2.544L11.68.19a.561.561 0 0 0-.42-.19H.566A.567.567 0 0 0 0 .566v18.87c0 .31.253.564.566.564h14.596a.566.566 0 0 0 .566-.565V4.965a.559.559 0 0 0-.143-.375z"/></symbol><symbol id="drag" viewBox="0 0 20 20" xmlns="http://www.w3.org/2000/svg"><style>.est0{clip-path:url(#eSVGID_2_)}</style><defs><path id="eSVGID_1_" d="M-2-2h24v24H-2z"/></defs><clipPath id="eSVGID_2_"><use xlink:href="#eSVGID_1_" overflow="visible"/></clipPath><path class="est0" d="M18 7H2v2h16V7zM2 13h16v-2H2v2z"/></symbol><symbol viewBox="0 0 80 80" id="flow" xmlns="http://www.w3.org/2000/svg"><path style="text-indent:0;text-transform:none;block-progression:tb" d="M25.808 47.764c-5.273 0-9.567 4.282-9.567 9.542s4.295 9.524 9.568 9.524c5.274 0 9.55-4.264 9.55-9.524 0-5.26-4.276-9.542-9.55-9.542zm0 .956a8.585 8.585 0 0 1 8.59 8.586c0 4.74-3.838 8.568-8.59 8.568s-8.61-3.83-8.61-8.568c0-4.74 3.858-8.586 8.61-8.586zM3.776 20.782c-1.196 0-2.17.973-2.17 2.17v14.144c0 1.195.974 2.17 2.17 2.17H17.92c1.196 0 2.17-.975 2.17-2.17V22.95a2.172 2.172 0 0 0-2.17-2.168H3.777zm0 .97H17.92c.68 0 1.198.52 1.198 1.2v14.144c0 .678-.52 1.197-1.197 1.197H3.777c-.678 0-1.198-.52-1.198-1.197V22.95c0-.677.52-1.197 1.198-1.197zm28.937-.97c-1.195 0-2.17.973-2.17 2.17v14.144c0 1.195.975 2.17 2.17 2.17h14.145c1.196 0 2.17-.975 2.17-2.17V22.95a2.172 2.172 0 0 0-2.17-2.168H32.713zm0 .97h14.145c.678 0 1.198.52 1.198 1.2v14.144c0 .678-.52 1.197-1.198 1.197H32.713c-.678 0-1.198-.52-1.198-1.197V22.95c0-.677.52-1.197 1.198-1.197zm28.937-.97c-1.195 0-2.2.973-2.2 2.17v14.144c0 1.195 1.005 2.17 2.2 2.17h14.113c1.196 0 2.17-.975 2.17-2.17V22.95a2.172 2.172 0 0 0-2.17-2.168H61.65zm0 .97h14.113c.678 0 1.23.52 1.23 1.2v14.144c0 .678-.552 1.197-1.23 1.197H61.65c-.677 0-1.23-.52-1.23-1.197V22.95c0-.677.553-1.197 1.23-1.197z" overflow="visible"/><path style="text-indent:0;text-transform:none;block-progression:tb" d="M27.4 27.27l-.694.692 1.582 1.582h-8.466v.964h8.466l-1.582 1.582.693.693 2.41-2.41.33-.347-.33-.346zm28.924 0l-.693.692 1.583 1.582h-8.467v.964h8.467L55.63 32.09l.694.693 2.41-2.41.332-.347-.332-.346zM43.46 39.944h.938v-.97h-.94zm0 2.88h.938v-1.91h-.94zm0 2.914h.938v-1.942h-.94zm0 2.88h.938v-1.94h-.94zm0 2.882h.938v-1.91h-.94zm0 2.913h.938V52.47h-.94zm-6.766 1.91h1.943v-.97h-1.943zm2.88 0h1.943v-.97h-1.942zm2.914 0h1.91v-.971h-1.911z" overflow="visible"/><path style="text-indent:0;text-transform:none;block-progression:tb" d="M38.766 53.086l-2.428 2.428-.323.323.323.356 2.428 2.396.68-.68-2.072-2.073 2.072-2.07-.68-.68zm33.599-14.113v16.38H48.25v.97h25.086v-17.35h-.97z" overflow="visible"/><path style="text-indent:0;text-transform:none;block-progression:tb" d="M50.322 53.086l-2.396 2.428-.356.323.356.356 2.396 2.396.68-.68-2.072-2.073 2.07-2.07-.678-.68z" overflow="visible"/></symbol><symbol viewBox="0 0 80 80" id="flow-fill" xmlns="http://www.w3.org/2000/svg"><path d="M25.8 47.8c-5.3 0-9.6 4.3-9.6 9.5s4.3 9.5 9.6 9.5 9.5-4.3 9.5-9.5-4.2-9.5-9.5-9.5zm-22-27c-1.2 0-2.2 1-2.2 2.2v14.1c0 1.2 1 2.2 2.2 2.2h14.1c1.2 0 2.2-1 2.2-2.2V23c0-1.2-1-2.2-2.2-2.2H3.8zm28.9 0c-1.2 0-2.2 1-2.2 2.2v14.1c0 1.2 1 2.2 2.2 2.2h14.1c1.2 0 2.2-1 2.2-2.2V23c0-1.2-1-2.2-2.2-2.2H32.7zm29 0c-1.2 0-2.2 1-2.2 2.2v14.1c0 1.2 1 2.2 2.2 2.2h14.1c1.2 0 2.2-1 2.2-2.2V23c0-1.2-1-2.2-2.2-2.2H61.7z"/><path d="M27.4 27.3l-.7.7 1.6 1.6h-8.5v1h8.5l-1.6 1.6.7.7 2.4-2.4.3-.3-.3-.3-2.4-2.6zm28.9 0l-.7.7 1.6 1.6h-8.5v1h8.5l-1.6 1.6.7.7 2.4-2.4.3-.3-.3-.3-2.4-2.6zM43.5 39.9h.9v-1h-.9v1zm0 2.9h.9v-1.9h-.9v1.9zm0 2.9h.9v-1.9h-.9v1.9zm0 2.9h.9v-1.9h-.9v1.9zm0 2.9h.9v-1.9h-.9v1.9zm0 2.9h.9v-1.9h-.9v1.9zm-6.8 1.9h1.9v-1h-1.9v1zm2.9 0h1.9v-1h-1.9v1zm2.9 0h1.9v-1h-1.9v1z"/><path d="M38.8 53.1l-2.4 2.4-.4.3.3.4 2.4 2.4.7-.7-2.1-2.1 2.1-2.1-.6-.6zM72.4 39v16.4H48.2v1h25.1V39h-.9z"/><path d="M50.3 53.1l-2.4 2.4-.4.3.4.4 2.4 2.4.7-.7-2.1-2.1 2.1-2.1-.7-.6z"/></symbol><symbol viewBox="0 0 24 24" id="home" xmlns="http://www.w3.org/2000/svg"><path d="M10 20v-6h4v6h5v-8h3L12 3 2 12h3v8h5z"/></symbol><symbol viewBox="0 0 24 24" id="lock" xmlns="http://www.w3.org/2000/svg"><defs><path d="M0 0h24v24H0V0z" id="ia"/></defs><clipPath id="ib"><use overflow="visible" xlink:href="#ia"/></clipPath><path clip-path="url(#ib)" d="M12 17c1.1 0 2-.9 2-2s-.9-2-2-2-2 .9-2 2 .9 2 2 2zm6-9h-1V6c0-2.76-2.24-5-5-5S7 3.24 7 6v2H6c-1.1 0-2 .9-2 2v10c0 1.1.9 2 2 2h12c1.1 0 2-.9 2-2V10c0-1.1-.9-2-2-2zM8.9 6c0-1.71 1.39-3.1 3.1-3.1s3.1 1.39 3.1 3.1v2H8.9V6zM18 20H6V10h12v10z"/></symbol><symbol viewBox="0 0 79 41.9" id="logo" xmlns="http://www.w3.org/2000/svg"><title>Cisco</title><path d="M79 12.95c0-.95-.77-1.72-1.714-1.72a1.72 1.72 0 0 0-1.717 1.72v3.613c0 .953.77 1.723 1.716 1.723a1.72 1.72 0 0 0 1.714-1.723V12.95zm-9.43-4.744c0-.948-.77-1.718-1.737-1.718-.947 0-1.715.77-1.715 1.718v8.357c0 .953.768 1.723 1.715 1.723.968 0 1.736-.77 1.736-1.723V8.206zm-9.452-6.488a1.716 1.716 0 1 0-3.429 0v18.278c0 .955.766 1.724 1.714 1.724.947 0 1.714-.77 1.714-1.724V1.718zm-9.453 6.488c0-.948-.767-1.718-1.714-1.718-.944 0-1.714.77-1.714 1.718v8.357c0 .953.77 1.723 1.715 1.723.948 0 1.715-.77 1.715-1.723V8.206zm-9.45 4.743c0-.95-.768-1.72-1.71-1.72-.947 0-1.72.77-1.72 1.72v3.613c0 .953.773 1.723 1.72 1.723.942 0 1.71-.77 1.71-1.723V12.95zm-9.436-4.744a1.72 1.72 0 0 0-3.44 0v8.357c0 .953.772 1.723 1.72 1.723.946 0 1.72-.77 1.72-1.723V8.206zM22.33 1.718a1.72 1.72 0 0 0-3.44 0v18.278c0 .955.774 1.724 1.72 1.724.948 0 1.72-.77 1.72-1.724V1.718zm-9.446 6.488c0-.948-.773-1.718-1.72-1.718s-1.72.77-1.72 1.718v8.357c0 .953.773 1.723 1.72 1.723s1.72-.77 1.72-1.723V8.206zM3.44 12.95c0-.95-.773-1.72-1.72-1.72C.774 11.23 0 12 0 12.95v3.613c0 .953.774 1.723 1.72 1.723.947 0 1.72-.77 1.72-1.723V12.95zm35.503 14.98c-.103-.028-1.69-.438-3.376-.438-3.193 0-5.116 1.728-5.116 4.303 0 2.28 1.608 3.415 3.538 4.027.214.07.53.17.74.24.86.27 1.545.673 1.545 1.37 0 .78-.793 1.285-2.516 1.285-1.515 0-2.967-.435-3.273-.512v3.167c.17.037 1.896.376 3.74.376 2.65 0 5.682-1.16 5.682-4.618 0-1.677-1.025-3.22-3.273-3.938l-.956-.305c-.57-.18-1.587-.473-1.587-1.31 0-.663.754-1.13 2.143-1.13 1.198 0 2.657.404 2.708.42v-2.938zm29.274 6.69c0 2.003-1.53 3.624-3.582 3.624-2.056 0-3.58-1.62-3.58-3.623 0-2 1.524-3.62 3.58-3.62 2.052 0 3.582 1.62 3.582 3.62zm-3.581-7.12c-4.223 0-7.25 3.193-7.25 7.125 0 3.937 3.027 7.128 7.25 7.128 4.22 0 7.254-3.19 7.254-7.127 0-3.932-3.033-7.125-7.254-7.125zm-47.055.493c-.324-.096-1.528-.492-3.157-.492-4.216 0-7.31 3.014-7.31 7.125 0 4.434 3.416 7.128 7.31 7.128 1.547 0 2.728-.366 3.158-.49V37.57c-.148.083-1.28.73-2.91.73-2.307 0-3.795-1.628-3.795-3.673 0-2.108 1.553-3.672 3.796-3.672 1.658 0 2.772.663 2.91.736V27.99zm36.158 0c-.328-.096-1.532-.492-3.156-.492-4.222 0-7.317 3.014-7.317 7.125 0 4.434 3.42 7.128 7.317 7.128 1.538 0 2.72-.366 3.156-.49V37.57c-.152.083-1.286.73-2.914.73-2.306 0-3.793-1.628-3.793-3.673 0-2.108 1.554-3.672 3.794-3.672 1.656 0 2.773.663 2.914.736V27.99zm-27.93 13.516h-3.465V27.742h3.464v13.764z"/></symbol><symbol viewBox="0 0 24 24" id="manager" xmlns="http://www.w3.org/2000/svg"><path d="M2 21h19v-3H2v3zM20 8H3c-.55 0-1 .45-1 1v6c0 .55.45 1 1 1h17c.55 0 1-.45 1-1V9c0-.55-.45-1-1-1zM2 3v3h19V3H2z"/></symbol><symbol viewBox="0 0 20.5 20" id="multiplechoice" xmlns="http://www.w3.org/2000/svg"><title>multiplechoice</title><path d="M3 6C1.3 6 0 4.7 0 3s1.3-3 3-3 3 1.3 3 3-1.3 3-3 3zm0-1c1.1 0 2-.9 2-2s-.9-2-2-2-2 .9-2 2 .9 2 2 2zM3 13c-1.7 0-3-1.3-3-3s1.3-3 3-3 3 1.3 3 3-1.3 3-3 3zm0-1c1.1 0 2-.9 2-2s-.9-2-2-2-2 .9-2 2 .9 2 2 2zM3 20c-1.7 0-3-1.3-3-3s1.3-3 3-3 3 1.3 3 3-1.3 3-3 3zm0-1c1.1 0 2-.9 2-2s-.9-2-2-2-2 .9-2 2 .9 2 2 2zM6.8 2.2h13.7v1H6.8v-1zm0 7.3h13.7v1H6.8v-1zm0 7.2h13.7v1H6.8v-1z"/></symbol><symbol viewBox="0 0 20 20" id="multiplechoice_old" xmlns="http://www.w3.org/2000/svg"><title>multiple choice</title><path d="M8.57 15.714a1.43 1.43 0 0 0 .001 2.857h10a1.43 1.43 0 1 0 0-2.857h-10zm0-7.143a1.43 1.43 0 0 0 .001 2.86h10a1.43 1.43 0 1 0 0-2.86h-10zm10-4.284a1.43 1.43 0 1 0 0-2.857h-10a1.428 1.428 0 0 0 .001 2.857h10zM1.43 18.57h2.856v-2.856H1.43v2.857zm0-4.284c-.787 0-1.43.643-1.43 1.428v2.857C0 19.358.643 20 1.43 20h2.856c.785 0 1.428-.643 1.428-1.43v-2.856c0-.785-.643-1.428-1.428-1.428H1.43zm0-2.857h2.856V8.57H1.43v2.86zm0-4.287A1.434 1.434 0 0 0 0 8.57v2.86c0 .784.643 1.427 1.43 1.427h2.856c.785 0 1.428-.643 1.428-1.428V8.57c0-.784-.643-1.427-1.428-1.427H1.43zm0-2.857h2.856V1.43H1.43v2.856zM1.43 0C.642 0 0 .643 0 1.43v2.856c0 .785.643 1.428 1.43 1.428h2.856c.785 0 1.428-.643 1.428-1.428V1.43C5.714.642 5.07 0 4.286 0H1.43z"/></symbol><symbol viewBox="0 0 24 24" id="order" xmlns="http://www.w3.org/2000/svg"><path d="M4 19h6v-2H4v2zM20 5H4v2h16V5zm-3 6H4v2h13.25c1.1 0 2 .9 2 2s-.9 2-2 2H15v-2l-3 3 3 3v-2h2c2.21 0 4-1.79 4-4s-1.79-4-4-4z"/></symbol><symbol viewBox="0 0 24 24" id="power" xmlns="http://www.w3.org/2000/svg"><path d="M13 3h-2v10h2V3zm4.83 2.17l-1.42 1.42A6.92 6.92 0 0 1 19 12c0 3.87-3.13 7-7 7A6.995 6.995 0 0 1 7.58 6.58L6.17 5.17A8.932 8.932 0 0 0 3 12a9 9 0 0 0 18 0c0-2.74-1.23-5.18-3.17-6.83z"/></symbol><symbol viewBox="0 0 20 20" id="question" xmlns="http://www.w3.org/2000/svg"><title>question</title><path d="M9.857 1.408c-4.775 0-8.633 3.878-8.633 8.653 0 4.756 3.878 8.634 8.633 8.634 4.755 0 8.633-3.878 8.633-8.633 0-4.774-3.878-8.652-8.633-8.652m0 18.51C4.407 19.918 0 15.49 0 10.06 0 4.634 4.408.205 9.857.205c5.45 0 9.857 4.43 9.857 9.857 0 5.43-4.428 9.858-9.857 9.858"/><path d="M9.96 4.816a3.394 3.394 0 0 0-3.39 3.388c0 .306.246.55.552.55.307 0 .55-.244.55-.55a2.284 2.284 0 0 1 2.287-2.286 2.282 2.282 0 0 1 2.285 2.286 2.282 2.282 0 0 1-2.286 2.286.549.549 0 0 0-.552.55v1.654c0 .306.245.55.55.55a.548.548 0 0 0 .552-.55V11.53a3.381 3.381 0 0 0 2.837-3.346 3.376 3.376 0 0 0-3.388-3.368M9.96 14.143a.775.775 0 1 1-.002 0"/></symbol><symbol viewBox="0 0 24 24" id="search" xmlns="http://www.w3.org/2000/svg"><path d="M15.5 14h-.79l-.28-.27A6.471 6.471 0 0 0 16 9.5 6.5 6.5 0 1 0 9.5 16c1.61 0 3.09-.59 4.23-1.57l.27.28v.79l5 4.99L20.49 19l-4.99-5zm-6 0C7.01 14 5 11.99 5 9.5S7.01 5 9.5 5 14 7.01 14 9.5 11.99 14 9.5 14z"/></symbol><symbol id="send" viewBox="0 0 100 100" xmlns="http://www.w3.org/2000/svg"><style>.rst0{fill:none;stroke:#000;stroke-miterlimit:10;stroke-width:5px}</style><title>Artboard 58</title><path class="rst0" d="M96 9.7l-7.4 76.2c-.2 2.8-2.6 4.8-5.4 4.6-.5 0-1-.2-1.4-.3l-24.4-9.5-13.8 12.8c-.9.9-2.1 1.3-3.3 1.3-2.7 0-5-2.2-5-4.9v-9.2l33-41.2c.7-.9.6-2.3-.3-3-.4-.3-.9-.5-1.3-.5-.5 0-1 .2-1.4.5L27.2 69l-20-7.8c-2.5-1-3.8-3.8-2.8-6.3.4-1.1 1.2-2 2.2-2.5L89.9 5.7c2-1.1 4.5-.4 5.6 1.5.4.8.6 1.6.5 2.5z"/></symbol><symbol viewBox="0 0 24 24" id="settings" xmlns="http://www.w3.org/2000/svg"><path d="M19.43 12.98c.04-.32.07-.64.07-.98s-.03-.66-.07-.98l2.11-1.65c.19-.15.24-.42.12-.64l-2-3.46c-.12-.22-.39-.3-.61-.22l-2.49 1c-.52-.4-1.08-.73-1.69-.98l-.38-2.65A.488.488 0 0 0 14 2h-4c-.25 0-.46.18-.49.42l-.38 2.65c-.61.25-1.17.59-1.69.98l-2.49-1c-.23-.09-.49 0-.61.22l-2 3.46c-.13.22-.07.49.12.64l2.11 1.65c-.04.32-.07.65-.07.98s.03.66.07.98l-2.11 1.65c-.19.15-.24.42-.12.64l2 3.46c.12.22.39.3.61.22l2.49-1c.52.4 1.08.73 1.69.98l.38 2.65c.03.24.24.42.49.42h4c.25 0 .46-.18.49-.42l.38-2.65c.61-.25 1.17-.59 1.69-.98l2.49 1c.23.09.49 0 .61-.22l2-3.46c.12-.22.07-.49-.12-.64l-2.11-1.65zM12 15.5c-1.93 0-3.5-1.57-3.5-3.5s1.57-3.5 3.5-3.5 3.5 1.57 3.5 3.5-1.57 3.5-3.5 3.5z"/></symbol><symbol viewBox="0 0 18 22" id="signature" xmlns="http://www.w3.org/2000/svg"><title>signature</title><path d="M14.9 21.5c-1.2 0-1.8-.7-2.2-1.1l-.2-.2c-.1.1-.1.2-.2.2-.3.4-1 1.1-2.2 1.1-1.2 0-1.9-.7-2.2-1.1l-.2-.2-.2.2-.1.1c-.5.5-1.4.5-1.9 0s-.5-1.4 0-1.9c.3-.4 1-1.1 2.2-1.1 1.2 0 1.8.7 2.2 1.1l.2.2.2-.2c.3-.4 1-1.1 2.2-1.1 1.2 0 1.9.8 2.2 1.1l.2.2c.1-.1.1-.2.2-.2l.1-.1c.3-.3.6-.4 1-.4s.7.1.9.4c.3.3.4.6.4 1s-.1.7-.4 1c-.4.3-1 1-2.2 1zm-2.3-2.4c.4 0 .6.2.9.6.3.4.7.8 1.4.8s1.1-.4 1.4-.8c.1-.1.1-.2.1-.3 0-.1 0-.2-.1-.2-.1-.1-.1-.1-.2-.1s-.2 0-.2.1c-.3.4-.5.6-1 .6-.4 0-.6-.2-.9-.6-.3-.4-.7-.8-1.4-.8s-1.1.4-1.4.8c-.3.4-.5.6-.9.6s-.6-.2-.9-.6c-.3-.4-.7-.8-1.4-.8s-1.1.4-1.4.8c-.2.2-.2.4 0 .5.1.1.4.1.5 0 .3-.4.5-.6 1-.6.4 0 .6.2.9.6.3.4.7.8 1.4.8s1.1-.4 1.4-.8c.1-.3.3-.6.8-.6zM1.7 20.3c-.5 0-.9-.3-1.1-.8 0-.1-.1-.2-.1-.4-.1-2.4.6-4.8 2-6.8l.8.6c-1.3 1.8-1.9 4-1.8 6.2 0 .2.2.2.3.2 2.1-.8 3.9-2.2 5.1-4L14 4.7c.6-.9.3-2.1-.6-2.8-.5-.3-1-.5-1.6-.4-.6.1-1.1.4-1.4.8l-.8 1.3-1.4-1c-.8-.4-1.7-.2-2.2.5L3.1 7.4c-.1.1-.1.2-.1.3 0 .2.1.3.2.3.1.1.2.1.3.1.1 0 .2-.1.3-.2l3-4.4c.2-.2.6-.3.9-.1l1.4 1-5.8 8.5-.8-.6 5.2-7.7-.3-.2-2.8 4.1c-.2.3-.5.5-.9.6-.4.1-.8 0-1.1-.2-.3-.3-.5-.6-.6-1-.1-.3 0-.7.2-1l2.9-4.3C6 1.3 7.6 1 8.7 1.8l.6.4.3-.5C10.1 1 10.9.6 11.7.5c.8-.1 1.7.1 2.3.6 1.3 1 1.6 2.8.8 4.1L7.7 15.8c-1.4 2-3.3 3.5-5.6 4.4-.1.1-.3.1-.4.1z"/></symbol></svg>