<svg width="22" height="20" viewBox="0 0 22 20" xmlns="http://www.w3.org/2000/svg" xmlns:xlink="http://www.w3.org/1999/xlink">
  <title>
    announcement
  </title>
  <path d="M12.953 14.22l-4.47 1.25-3.828 1.073-.22.06-.89-1.302.134-.184L13.34 1.95l6.982 10.207-7.37 2.063zm-2.99 2.922l-.205-.723 2.562-.718.2.7-2.556.74zm-6.45 1.317l-2.02-2.955.635-.44.046.066L4.1 17.95l.048.068-.634.44zm18.336-6.29L13.874.51c-.115-.167-.302-.268-.504-.272-.203-.007-.392.092-.512.255L2.93 14.02l-.127-.185c-.195-.285-.584-.358-.868-.162L.27 14.826c-.136.095-.23.24-.26.404-.03.164.006.333.1.47l2.73 3.99c.093.137.237.23.4.262.038.007.076.01.114.01.125 0 .25-.038.354-.11l1.663-1.154c.285-.197.357-.588.16-.874l-.126-.186 3.15-.882.382 1.338c.08.275.33.455.6.455.057 0 .115-.01.173-.026l3.755-1.087c.332-.095.523-.444.43-.778l-.37-1.294 7.978-2.235c.194-.053.35-.198.42-.39.068-.19.04-.403-.074-.57z" id="Fill-1"/>
  <path d="M12.944 4.298c-.232-.18-.567-.137-.746.098l-7.245 9.47c-.18.233-.136.57.097.75.097.074.21.11.324.11.16 0 .317-.07.422-.208l7.245-9.47c.18-.233.136-.57-.096-.75" id="Fill-4"/>
</svg>
