<?xml version="1.0" encoding="utf-8"?>
<!-- Generator: Adobe Illustrator 21.1.0, SVG Export Plug-In . SVG Version: 6.00 Build 0)  -->
<svg version="1.1" id="Layer_1" xmlns="http://www.w3.org/2000/svg" xmlns:xlink="http://www.w3.org/1999/xlink" x="0px" y="0px"
	 viewBox="0 0 20 20" style="enable-background:new 0 0 20 20;" xml:space="preserve">
<style type="text/css">
	.st0{fill:none;stroke:#000000;stroke-width:0.25;stroke-miterlimit:10;}
</style>
<title>Dashboard</title>
<desc>Created with Sketch.</desc>
<g>
	<g transform="translate(-290.000000, -110.000000)">
		<g transform="translate(21.000000, 110.000000)">
			<path class="st0" d="M280,9.3c-0.3-0.2-0.6-0.3-1-0.3c-1.1,0-2,0.9-2,2c0,0.1,0,0.2,0,0.2c-2.3,0.5-4,1.4-4-1.2c0-3.3,2.7-6,6-6
				s6,2.7,6,6c0,2.6-1.7,1.7-4,1.2c0-0.1,0-0.2,0-0.2c0-0.4-0.1-0.7-0.3-1l2.5-2.5c0.2-0.2,0.2-0.5,0-0.7c-0.2-0.2-0.5-0.2-0.7,0
				L280,9.3z M279,18c4.4,0,8-3.6,8-8s-3.6-8-8-8s-8,3.6-8,8S274.6,18,279,18z M279,12c0.6,0,1-0.4,1-1s-0.4-1-1-1s-1,0.4-1,1
				S278.4,12,279,12z"/>
		</g>
	</g>
</g>
</svg>
