<svg width="16" height="20" viewBox="0 0 16 20" xmlns="http://www.w3.org/2000/svg" xmlns:xlink="http://www.w3.org/1999/xlink">
  <title>
    document
  </title>
  <path d="M12.004 15.19h-8.28c-.313 0-.566.254-.566.567 0 .312.253.566.566.566h8.28c.312 0 .566-.254.566-.566 0-.313-.254-.566-.566-.566zm0-3.056h-8.28c-.313 0-.566.253-.566.566 0 .312.253.565.566.565h8.28c.312 0 .566-.253.566-.565 0-.313-.254-.566-.566-.566zM3.158 9.642c0 .312.253.566.566.566h8.28c.312 0 .566-.254.566-.566 0-.313-.254-.566-.566-.566h-8.28c-.313 0-.566.253-.566.566zm11.438 9.227H1.13V1.13h9.553v3.862c0 .312.253.565.566.565h3.346v13.31zm-2.78-16.824l2.113 2.382h-2.115V2.046zm3.77 2.544L11.68.19C11.575.07 11.42 0 11.26 0H.566C.253 0 0 .255 0 .566v18.87c0 .31.253.564.566.564h14.596c.312 0 .566-.253.566-.565V4.965c0-.138-.05-.272-.143-.375z" id="Fill-1"/>
</svg>
