<?xml version="1.0" encoding="utf-8"?>
<!-- Generator: Adobe Illustrator 21.1.0, SVG Export Plug-In . SVG Version: 6.00 Build 0)  -->
<svg version="1.1"
	 id="Layer_1" xmlns:cc="http://creativecommons.org/ns#" xmlns:dc="http://purl.org/dc/elements/1.1/" xmlns:rdf="http://www.w3.org/1999/02/22-rdf-syntax-ns#" xmlns:svg="http://www.w3.org/2000/svg"
	 xmlns="http://www.w3.org/2000/svg" xmlns:xlink="http://www.w3.org/1999/xlink" x="0px" y="0px" viewBox="0 0 80 80"
	 style="enable-background:new 0 0 80 80;" xml:space="preserve">
<path d="M25.8,47.8c-5.3,0-9.6,4.3-9.6,9.5s4.3,9.5,9.6,9.5c5.3,0,9.5-4.3,9.5-9.5S31.1,47.8,25.8,47.8L25.8,47.8z M3.8,20.8
	c-1.2,0-2.2,1-2.2,2.2v14.1c0,1.2,1,2.2,2.2,2.2h14.1c1.2,0,2.2-1,2.2-2.2V23c0-1.2-1-2.2-2.2-2.2L3.8,20.8L3.8,20.8z M32.7,20.8
	c-1.2,0-2.2,1-2.2,2.2v14.1c0,1.2,1,2.2,2.2,2.2h14.1c1.2,0,2.2-1,2.2-2.2V23c0-1.2-1-2.2-2.2-2.2C46.9,20.8,32.7,20.8,32.7,20.8z
	 M61.7,20.8c-1.2,0-2.2,1-2.2,2.2v14.1c0,1.2,1,2.2,2.2,2.2h14.1c1.2,0,2.2-1,2.2-2.2V23c0-1.2-1-2.2-2.2-2.2
	C75.8,20.8,61.7,20.8,61.7,20.8z"/>
<path d="M27.4,27.3L26.7,28l1.6,1.6h-8.5v1h8.5l-1.6,1.6l0.7,0.7l2.4-2.4l0.3-0.3l-0.3-0.3L27.4,27.3z M56.3,27.3L55.6,28l1.6,1.6
	h-8.5v1h8.5l-1.6,1.6l0.7,0.7l2.4-2.4l0.3-0.3l-0.3-0.3L56.3,27.3z M43.5,39.9h0.9v-1h-0.9L43.5,39.9z M43.5,42.8h0.9v-1.9h-0.9
	L43.5,42.8z M43.5,45.7h0.9v-1.9h-0.9L43.5,45.7z M43.5,48.6h0.9v-1.9h-0.9L43.5,48.6z M43.5,51.5h0.9v-1.9h-0.9L43.5,51.5z
	 M43.5,54.4h0.9v-1.9h-0.9L43.5,54.4z M36.7,56.3h1.9v-1h-1.9V56.3z M39.6,56.3h1.9v-1h-1.9L39.6,56.3z M42.5,56.3h1.9v-1h-1.9
	L42.5,56.3z"/>
<path d="M38.8,53.1l-2.4,2.4L36,55.8l0.3,0.4l2.4,2.4l0.7-0.7l-2.1-2.1l2.1-2.1L38.8,53.1z M72.4,39v16.4H48.2v1h25.1V39H72.4
	L72.4,39z"/>
<path d="M50.3,53.1l-2.4,2.4l-0.4,0.3l0.4,0.4l2.4,2.4l0.7-0.7l-2.1-2.1l2.1-2.1L50.3,53.1z"/>
</svg>
