<svg xmlns:dc="http://purl.org/dc/elements/1.1/" xmlns:cc="http://creativecommons.org/ns#" xmlns:rdf="http://www.w3.org/1999/02/22-rdf-syntax-ns#" xmlns:svg="http://www.w3.org/2000/svg" xmlns="http://www.w3.org/2000/svg" viewBox="0 0 80 80">
  <path style="text-indent:0;text-transform:none;block-progression:tb" d="M25.808 47.764c-5.273 0-9.567 4.282-9.567 9.542s4.295 9.524 9.568 9.524c5.274 0 9.55-4.264 9.55-9.524 0-5.26-4.276-9.542-9.55-9.542zm0 .956c4.752 0 8.59 3.847 8.59 8.586 0 4.74-3.838 8.568-8.59 8.568s-8.61-3.83-8.61-8.568c0-4.74 3.858-8.586 8.61-8.586zM3.776 20.782c-1.196 0-2.17.973-2.17 2.17v14.144c0 1.195.974 2.17 2.17 2.17H17.92c1.196 0 2.17-.975 2.17-2.17V22.95c0-1.195-.974-2.168-2.17-2.168H3.777zm0 .97H17.92c.68 0 1.198.52 1.198 1.2v14.144c0 .678-.52 1.197-1.197 1.197H3.777c-.678 0-1.198-.52-1.198-1.197V22.95c0-.677.52-1.197 1.198-1.197zM32.713 20.782c-1.195 0-2.17.973-2.17 2.17v14.144c0 1.195.975 2.17 2.17 2.17h14.145c1.196 0 2.17-.975 2.17-2.17V22.95c0-1.195-.974-2.168-2.17-2.168H32.713zm0 .97h14.145c.678 0 1.198.52 1.198 1.2v14.144c0 .678-.52 1.197-1.198 1.197H32.713c-.678 0-1.198-.52-1.198-1.197V22.95c0-.677.52-1.197 1.198-1.197zM61.65 20.782c-1.195 0-2.2.973-2.2 2.17v14.144c0 1.195 1.005 2.17 2.2 2.17h14.113c1.196 0 2.17-.975 2.17-2.17V22.95c0-1.195-.974-2.168-2.17-2.168H61.65zm0 .97h14.113c.678 0 1.23.52 1.23 1.2v14.144c0 .678-.552 1.197-1.23 1.197H61.65c-.677 0-1.23-.52-1.23-1.197V22.95c0-.677.553-1.197 1.23-1.197z" overflow="visible"/>
  <path style="text-indent:0;text-transform:none;block-progression:tb" d="M27.4 27.27l-.694.692 1.582 1.582h-8.466v.964h8.466l-1.582 1.582.693.693 2.41-2.41.33-.347-.33-.346zM56.324 27.27l-.693.692 1.583 1.582h-8.467v.964h8.467L55.63 32.09l.694.693 2.41-2.41.332-.347-.332-.346zM43.46 39.944h.938v-.97h-.94zm0 2.88h.938v-1.91h-.94zm0 2.914h.938v-1.942h-.94zm0 2.88h.938v-1.94h-.94zm0 2.882h.938v-1.91h-.94zm0 2.913h.938V52.47h-.94zm-6.766 1.91h1.943v-.97h-1.943zm2.88 0h1.943v-.97h-1.942zm2.914 0H44.398v-.971h-1.911z" overflow="visible"/>
  <path style="text-indent:0;text-transform:none;block-progression:tb" d="M38.766 53.086l-2.428 2.428-.323.323.323.356 2.428 2.396.68-.68-2.072-2.073 2.072-2.07-.68-.68zM72.365 38.973v16.38H48.25v.97H73.336v-17.35h-.97z" overflow="visible"/>
  <path style="text-indent:0;text-transform:none;block-progression:tb" d="M50.322 53.086l-2.396 2.428-.356.323.356.356 2.396 2.396.68-.68-2.072-2.073 2.07-2.07-.678-.68z" overflow="visible"/>
</svg>
