<svg xmlns="http://www.w3.org/2000/svg" xmlns:xlink="http://www.w3.org/1999/xlink">
  <title>
    Cisco
  </title>
  <g>
    <path d="M79 12.95c0-.95-.77-1.72-1.714-1.72-.947 0-1.717.77-1.717 1.72v3.613c0 .953.77 1.723 1.716 1.723.944 0 1.714-.77 1.714-1.723V12.95zm-9.43-4.744c0-.948-.77-1.718-1.737-1.718-.947 0-1.715.77-1.715 1.718v8.357c0 .953.768 1.723 1.715 1.723.968 0 1.736-.77 1.736-1.723V8.206zm-9.452-6.488C60.118.768 59.35 0 58.404 0c-.948 0-1.715.77-1.715 1.718v18.278c0 .955.766 1.724 1.714 1.724.947 0 1.714-.77 1.714-1.724V1.718zm-9.453 6.488c0-.948-.767-1.718-1.714-1.718-.944 0-1.714.77-1.714 1.718v8.357c0 .953.77 1.723 1.715 1.723.948 0 1.715-.77 1.715-1.723V8.206zm-9.45 4.743c0-.95-.768-1.72-1.71-1.72-.947 0-1.72.77-1.72 1.72v3.613c0 .953.773 1.723 1.72 1.723.942 0 1.71-.77 1.71-1.723V12.95zm-9.436-4.744c0-.948-.774-1.718-1.72-1.718-.948 0-1.72.77-1.72 1.718v8.357c0 .953.772 1.723 1.72 1.723.946 0 1.72-.77 1.72-1.723V8.206zM22.33 1.718c0-.95-.772-1.718-1.72-1.718-.946 0-1.72.77-1.72 1.718v18.278c0 .955.774 1.724 1.72 1.724.948 0 1.72-.77 1.72-1.724V1.718zm-9.446 6.488c0-.948-.773-1.718-1.72-1.718s-1.72.77-1.72 1.718v8.357c0 .953.773 1.723 1.72 1.723s1.72-.77 1.72-1.723V8.206zM3.44 12.95c0-.95-.773-1.72-1.72-1.72C.774 11.23 0 12 0 12.95v3.613c0 .953.774 1.723 1.72 1.723.947 0 1.72-.77 1.72-1.723V12.95zM38.943 27.93c-.103-.028-1.69-.438-3.376-.438-3.193 0-5.116 1.728-5.116 4.303 0 2.28 1.608 3.415 3.538 4.027.214.07.53.17.74.24.86.27 1.545.673 1.545 1.37 0 .78-.793 1.285-2.516 1.285-1.515 0-2.967-.435-3.273-.512v3.167c.17.037 1.896.376 3.74.376 2.65 0 5.682-1.16 5.682-4.618 0-1.677-1.025-3.22-3.273-3.938l-.956-.305c-.57-.18-1.587-.473-1.587-1.31 0-.663.754-1.13 2.143-1.13 1.198 0 2.657.404 2.708.42v-2.938zm29.274 6.69c0 2.003-1.53 3.624-3.582 3.624-2.056 0-3.58-1.62-3.58-3.623 0-2 1.524-3.62 3.58-3.62 2.052 0 3.582 1.62 3.582 3.62zM64.636 27.5c-4.223 0-7.25 3.193-7.25 7.125 0 3.937 3.027 7.128 7.25 7.128 4.22 0 7.254-3.19 7.254-7.127 0-3.932-3.033-7.125-7.254-7.125zm-47.055.493c-.324-.096-1.528-.492-3.157-.492-4.216 0-7.31 3.014-7.31 7.125 0 4.434 3.416 7.128 7.31 7.128 1.547 0 2.728-.366 3.158-.49v-3.694c-.148.083-1.28.73-2.91.73-2.307 0-3.795-1.628-3.795-3.673 0-2.108 1.553-3.672 3.796-3.672 1.658 0 2.772.663 2.91.736V27.99zm36.158 0c-.328-.096-1.532-.492-3.156-.492-4.222 0-7.317 3.014-7.317 7.125 0 4.434 3.42 7.128 7.317 7.128 1.538 0 2.72-.366 3.156-.49v-3.694c-.152.083-1.286.73-2.914.73-2.306 0-3.793-1.628-3.793-3.673 0-2.108 1.554-3.672 3.794-3.672 1.656 0 2.773.663 2.914.736V27.99zm-27.93 13.516h-3.465V27.742h3.464v13.764z" />
  </g>
</svg>
