<svg width="20" height="20" viewBox="0 0 20 20" xmlns="http://www.w3.org/2000/svg" xmlns:xlink="http://www.w3.org/1999/xlink">
  <title>
    multiple choice
  </title>
  <path d="M8.57 15.714c-.787 0-1.427.64-1.427 1.43 0 .787.64 1.427 1.428 1.427h10c.79 0 1.43-.64 1.43-1.427 0-.79-.64-1.43-1.43-1.43h-10zm0-7.143c-.787 0-1.427.64-1.427 1.43 0 .79.64 1.43 1.428 1.43h10c.79 0 1.43-.64 1.43-1.43 0-.79-.64-1.43-1.43-1.43h-10zm10-4.284c.79 0 1.43-.64 1.43-1.43 0-.787-.64-1.427-1.43-1.427h-10c-.787 0-1.427.64-1.427 1.427 0 .79.64 1.43 1.428 1.43h10zM1.43 18.57h2.856v-2.856H1.43v2.857zm0-4.284c-.787 0-1.43.643-1.43 1.428v2.857C0 19.358.643 20 1.43 20h2.856c.785 0 1.428-.643 1.428-1.43v-2.856c0-.785-.643-1.428-1.428-1.428H1.43zm0-2.857h2.856V8.57H1.43v2.86zm0-4.287C.642 7.143 0 7.786 0 8.57v2.86c0 .784.643 1.427 1.43 1.427h2.856c.785 0 1.428-.643 1.428-1.428V8.57c0-.784-.643-1.427-1.428-1.427H1.43zm0-2.857h2.856V1.43H1.43v2.856zM1.43 0C.642 0 0 .643 0 1.43v2.856c0 .785.643 1.428 1.43 1.428h2.856c.785 0 1.428-.643 1.428-1.428V1.43C5.714.642 5.07 0 4.286 0H1.43z" id="multiple-icon"/>
</svg>
