<?xml version="1.0" encoding="utf-8"?>
<!-- Generator: Adobe Illustrator 21.1.0, SVG Export Plug-In . SVG Version: 6.00 Build 0)  -->
<svg version="1.1" id="Layer_1" xmlns="http://www.w3.org/2000/svg" xmlns:xlink="http://www.w3.org/1999/xlink" x="0px" y="0px"
	 viewBox="0 0 20.5 20" style="enable-background:new 0 0 20.5 20;" xml:space="preserve">
<title>multiplechoice</title>
<g id="multiplechoice">
	<path id="Oval" d="M3,6C1.3,6,0,4.7,0,3s1.3-3,3-3s3,1.3,3,3S4.7,6,3,6z M3,5c1.1,0,2-0.9,2-2S4.1,1,3,1S1,1.9,1,3S1.9,5,3,5z"/>
	<path id="Oval-Copy" d="M3,13c-1.7,0-3-1.3-3-3s1.3-3,3-3s3,1.3,3,3S4.7,13,3,13z M3,12c1.1,0,2-0.9,2-2S4.1,8,3,8s-2,0.9-2,2
		S1.9,12,3,12z"/>
	<path id="Oval-Copy-2" d="M3,20c-1.7,0-3-1.3-3-3s1.3-3,3-3s3,1.3,3,3S4.7,20,3,20z M3,19c1.1,0,2-0.9,2-2s-0.9-2-2-2s-2,0.9-2,2
		S1.9,19,3,19z"/>
	<path id="Rectangle-path" d="M6.8,2.2h13.7v1H6.8V2.2z M6.8,9.5h13.7v1H6.8V9.5z M6.8,16.7h13.7v1H6.8V16.7z"/>
</g>
</svg>
