<svg xmlns:dc="http://purl.org/dc/elements/1.1/" xmlns:cc="http://creativecommons.org/ns#" xmlns:rdf="http://www.w3.org/1999/02/22-rdf-syntax-ns#" xmlns:svg="http://www.w3.org/2000/svg" xmlns="http://www.w3.org/2000/svg" xmlns:sodipodi="http://sodipodi.sourceforge.net/DTD/sodipodi-0.dtd" xmlns:inkscape="http://www.inkscape.org/namespaces/inkscape" viewBox="0 0 583.835 336.40929" version="1.1" x="0px" y="0px"><g transform="translate(-89.540622,-407.81949)"><path style="" d="m 257.58722,407.81949 c -55.5511,0 -100.6501,45.0993 -100.6501,100.6503 0,29.2874 12.6367,55.6385 32.687,74.0311 -60.3981,26.719 -100.083498,86.9467 -100.083498,153.8067 0,4.2254 3.3401,7.6864 7.6052,7.6864 l 83.659598,0 c 4.2663,0 7.6052,-3.4636 7.6052,-7.6864 0,-4.2253 -3.3401,-7.6863 -7.6052,-7.6863 l -75.8108,0 c 2.9818,-60.3565 41.792,-113.6984 98.6264,-135.1979 15.6173,9.9834 34.0827,15.8581 53.9662,15.8581 4.2261,0 7.6857,-3.46 7.6857,-7.6859 0,-4.2257 -3.4596,-7.6058 -7.6857,-7.6058 -47.1002,0 -85.358,-38.339 -85.358,-85.4395 0,-47.1001 38.2578,-85.439 85.358,-85.439 9.694,0 19.2875,1.5459 28.3179,4.693 3.9765,1.4511 8.3007,-0.6343 9.7094,-4.6121 1.3672,-3.9766 -0.7582,-8.4228 -4.6933,-9.7896 -10.6875,-3.7284 -21.9001,-5.5831 -33.334,-5.5831 z m 123.7899,0.073 c -8.6993,0 -17.0449,1.2067 -25.0819,3.3177 -43.4135,11.1848 -75.5683,50.5208 -75.5683,97.4142 0,29.2875 12.6793,55.597 32.6871,74.0312 -60.3568,26.7193 -100.0836,86.9467 -100.0836,153.8067 0,4.2257 3.3803,7.686 7.6052,7.686 l 320.9633,0 c 1.0361,0 2.0829,-0.2553 2.9972,-0.6453 2.6908,-1.1594 4.6116,-3.8483 4.6116,-7.0389 0,-66.9016 -39.6855,-127.1293 -100.0824,-153.807 20.0077,-18.4343 32.687,-44.7438 32.687,-74.0313 0,-45.112 -29.8259,-83.4414 -70.7958,-96.2004 -9.4858,-2.9422 -19.5382,-4.5303 -29.9359,-4.5303 z m 123.8714,0 c -11.3925,0 -22.6477,1.8923 -33.3352,5.6632 -3.9765,1.4074 -6.0593,5.7325 -4.692,9.7092 1.4074,3.977 5.8535,6.1426 9.7897,4.6926 9.0719,-3.15 18.5021,-4.7733 28.2375,-4.7733 47.1002,0 85.4385,38.2974 85.4385,85.4395 0,47.1001 -38.3383,85.439 -85.4385,85.439 -4.2261,0 -7.6869,3.4599 -7.6869,7.686 0,4.2253 3.4608,7.6864 7.6869,7.6864 19.8421,0 38.3477,-5.8743 53.965,-15.8577 56.877,21.4994 95.6032,74.7565 98.6276,135.2784 l -75.7304,0 c -4.2662,0 -7.6856,3.4636 -7.6856,7.6867 0,4.2253 3.4158,7.6863 7.6856,7.6863 l 83.6596,0 c 4.2249,0 7.6053,-3.4636 7.6053,-7.6863 -0.035,-66.9847 -39.7269,-127.2099 -100.0836,-153.888 20.0089,-18.3926 32.6066,-44.7433 32.6066,-74.0308 0,-55.5515 -45.1002,-100.7312 -100.6501,-100.7312 z m -123.791,15.2917 c 1.7398,0 3.4383,0.1089 5.1793,0.2553 44.6555,2.6907 80.2604,39.8359 80.2604,85.1963 0,45.319 -35.5635,82.3815 -80.2604,85.1156 -1.7398,0.073 -3.4383,0.2551 -5.1793,0.2551 -1.7825,0 -3.5211,-0.1823 -5.2586,-0.2551 -44.6566,-2.7345 -80.1799,-39.7966 -80.1799,-85.1156 0,-45.3604 35.483,-82.4626 80.1799,-85.1963 1.7387,-0.1088 3.475,-0.2553 5.2586,-0.2553 z m -53.965,170.231 c 7.7873,5.0124 16.334,8.9585 25.3242,11.6509 1.0349,0.2917 2.1988,0.4375 3.2337,0.7293 6.3799,1.6989 12.9868,2.7016 19.8232,3.0734 1.8629,0.073 3.6347,0.4157 5.5011,0.4157 1.8628,0 3.6784,-0.2917 5.5022,-0.4157 6.2971,-0.3281 12.5232,-1.2577 18.4465,-2.749 1.5317,-0.3718 3.0776,-0.5979 4.6128,-1.0537 9.0718,-2.6907 17.5357,-6.6797 25.3243,-11.6509 56.8758,21.4997 95.725,74.8378 98.708,135.3599 l -305.1864,0 c 2.9817,-60.4806 41.831,-113.8602 98.708,-135.3599 z" fill="#000000"></path></g></svg>