<svg width="20" height="20" viewBox="0 0 20 20" xmlns="http://www.w3.org/2000/svg" xmlns:xlink="http://www.w3.org/1999/xlink">
  <title>
    question
  </title>
  <g id="question">
    <path d="M9.857 1.408c-4.775 0-8.633 3.878-8.633 8.653 0 4.756 3.878 8.634 8.633 8.634 4.755 0 8.633-3.878 8.633-8.633 0-4.774-3.878-8.652-8.633-8.652m0 18.51C4.407 19.918 0 15.49 0 10.06 0 4.634 4.408.205 9.857.205c5.45 0 9.857 4.43 9.857 9.857 0 5.43-4.428 9.858-9.857 9.858" id="Fill-1"/>
    <path d="M9.96 4.816c-1.858 0-3.39 1.51-3.39 3.388 0 .306.246.55.552.55.307 0 .55-.244.55-.55 0-1.265 1.022-2.286 2.287-2.286 1.264 0 2.285 1.02 2.285 2.286 0 1.265-1.02 2.286-2.286 2.286-.307 0-.552.245-.552.55v1.654c0 .306.245.55.55.55.307 0 .552-.244.552-.55V11.53c1.613-.265 2.837-1.652 2.837-3.346 0-1.857-1.51-3.368-3.388-3.368" id="Fill-4"/>
    <path d="M9.96 14.143c.428 0 .775.347.775.775 0 .428-.347.776-.776.776-.43 0-.776-.348-.776-.776 0-.428.347-.775.775-.775" id="Fill-6"/>
  </g>
</svg>
