<?xml version="1.0" encoding="utf-8"?>
<!-- Generator: Adobe Illustrator 21.1.0, SVG Export Plug-In . SVG Version: 6.00 Build 0)  -->
<svg version="1.1" id="Layer_1" xmlns="http://www.w3.org/2000/svg" xmlns:xlink="http://www.w3.org/1999/xlink" x="0px" y="0px"
	 viewBox="0 0 22.9 24.5" style="enable-background:new 0 0 22.9 24.5;" xml:space="preserve">
<style type="text/css">
	.st0{fill:#FFFFFF;}
</style>
<title>document</title>
<path id="Fill-1" d="M12,15.2H3.7c-0.3,0-0.6,0.3-0.6,0.6c0,0.3,0.3,0.6,0.6,0.6H12c0.3,0,0.6-0.3,0.6-0.6
	C12.6,15.4,12.3,15.2,12,15.2L12,15.2z M12,12.1H3.7c-0.3,0-0.6,0.3-0.6,0.6c0,0.3,0.3,0.6,0.6,0.6H12c0.3,0,0.6-0.3,0.6-0.6
	C12.6,12.4,12.3,12.1,12,12.1z M3.2,9.6c0,0.3,0.3,0.6,0.6,0.6H12c0.3,0,0.6-0.3,0.6-0.6c0-0.3-0.3-0.6-0.6-0.6H3.7
	C3.4,9.1,3.2,9.3,3.2,9.6z M14.6,18.9H1.1V1.1h9.6V5c0,0.3,0.3,0.6,0.6,0.6h3.3L14.6,18.9L14.6,18.9z M11.8,2l2.1,2.4h-2.1L11.8,2
	L11.8,2z M15.6,4.6l-3.9-4.4C11.6,0.1,11.4,0,11.3,0H0.6C0.3,0,0,0.3,0,0.6v18.9C0,19.7,0.3,20,0.6,20h14.6c0.3,0,0.6-0.3,0.6-0.6V5
	C15.7,4.8,15.7,4.7,15.6,4.6L15.6,4.6z"/>
<g>
	<circle class="st0" cx="15.3" cy="16.8" r="7.2"/>
	<path d="M15.3,24.5c-4.2,0-7.7-3.4-7.7-7.7s3.4-7.7,7.7-7.7s7.7,3.4,7.7,7.7S19.5,24.5,15.3,24.5z M15.3,10.2c-3.7,0-6.7,3-6.7,6.7
		c0,3.7,3,6.7,6.7,6.7s6.7-3,6.7-6.7C21.9,13.1,19,10.2,15.3,10.2z"/>
</g>
<g transform="translate(0,-952.36218)">
	<path d="M15.3,965.3c-0.1,0-0.1,0-0.2,0.1l-2.7,2.5c-0.1,0.1-0.1,0.3,0,0.4c0.1,0.1,0.3,0.1,0.4,0l2.1-2v5.2c0,0.2,0.1,0.3,0.3,0.3
		s0.3-0.1,0.3-0.3v-5.2l2.1,2c0.1,0.1,0.3,0.1,0.4,0c0.1-0.1,0.1-0.3,0-0.4l-2.7-2.5C15.4,965.3,15.3,965.3,15.3,965.3L15.3,965.3z
		 M12.6,972.5c-0.2,0-0.3,0.1-0.3,0.3c0,0.2,0.1,0.3,0.3,0.3h5.3c0.2,0,0.3-0.1,0.3-0.3c0-0.2-0.1-0.3-0.3-0.3
		C17.9,972.5,12.6,972.5,12.6,972.5z"/>
</g>
</svg>
