<?xml version="1.0" encoding="utf-8"?>
<!-- Generator: Adobe Illustrator 21.1.0, SVG Export Plug-In . SVG Version: 6.00 Build 0)  -->
<svg version="1.1" id="Layer_1" xmlns="http://www.w3.org/2000/svg" xmlns:xlink="http://www.w3.org/1999/xlink" x="0px" y="0px"
	 viewBox="0 0 24 22.3" style="enable-background:new 0 0 24 22.3;" xml:space="preserve">
<path id="Fill-1" d="M12,15.2H3.7c-0.3,0-0.6,0.3-0.6,0.6s0.3,0.6,0.6,0.6H12c0.3,0,0.6-0.3,0.6-0.6C12.6,15.4,12.3,15.2,12,15.2
	L12,15.2z M12,12.1H3.7c-0.3,0-0.6,0.3-0.6,0.6s0.3,0.6,0.6,0.6H12c0.3,0,0.6-0.3,0.6-0.6C12.6,12.4,12.3,12.1,12,12.1z M3.2,9.6
	c0,0.3,0.3,0.6,0.6,0.6H12c0.3,0,0.6-0.3,0.6-0.6S12.3,9,12,9H3.7C3.4,9.1,3.2,9.3,3.2,9.6z M14.6,18.9H1.1V1.1h9.6V5
	c0,0.3,0.3,0.6,0.6,0.6h3.3L14.6,18.9L14.6,18.9z M11.8,2l2.1,2.4h-2.1L11.8,2L11.8,2z M15.6,4.6l-3.9-4.4C11.6,0.1,11.4,0,11.3,0
	H0.6C0.3,0,0,0.3,0,0.6v18.9C0,19.7,0.3,20,0.6,20h14.6c0.3,0,0.6-0.3,0.6-0.6V5C15.7,4.8,15.7,4.7,15.6,4.6L15.6,4.6z"/>
<title>document</title>
<path d="M18.3,10.9c-3.1,0-5.7,2.6-5.7,5.7s2.6,5.7,5.7,5.7c3.1,0,5.7-2.6,5.7-5.7S21.5,10.9,18.3,10.9z M16.1,15.6l2.1-2
	c0.1-0.1,0.1-0.1,0.2-0.1l2.1,2.1c0.1,0.1,0.1,0.2,0,0.3c-0.1,0.1-0.2,0.1-0.3,0l-1.7-1.6v4.1c0,0.2-0.1,0.2-0.2,0.2
	c-0.2,0-0.2-0.1-0.2-0.2v-4.1l-1.7,1.6c-0.1,0.1-0.2,0.1-0.3,0C16,15.9,16,15.7,16.1,15.6z M20.4,19.7h-4.2c-0.2,0-0.2-0.1-0.2-0.2
	s0.1-0.2,0.2-0.2h4.2c0.2,0,0.2,0.1,0.2,0.2S20.6,19.7,20.4,19.7z"/>
</svg>
