<?xml version="1.0" encoding="utf-8"?>
<!-- Generator: Adobe Illustrator 21.1.0, SVG Export Plug-In . SVG Version: 6.00 Build 0)  -->
<svg version="1.1" id="Layer_1" xmlns="http://www.w3.org/2000/svg" xmlns:xlink="http://www.w3.org/1999/xlink" x="0px" y="0px"
	 viewBox="0 0 100 100" style="enable-background:new 0 0 100 100;" xml:space="preserve">
<style type="text/css">
	.st0{fill:none;stroke:#000000;stroke-width:2;stroke-miterlimit:10;}
</style>
<title>Artboard 58</title>
<path class="st0" d="M96,9.7l-7.4,76.2c-0.2,2.8-2.6,4.8-5.4,4.6c-0.5,0-1-0.2-1.4-0.3l-24.4-9.5L43.6,93.5
	c-0.9,0.9-2.1,1.3-3.3,1.3c-2.7,0-5-2.2-5-4.9c0,0,0,0,0-0.1v-9.1l33-41.2c0.7-0.9,0.6-2.3-0.3-3c-0.4-0.3-0.9-0.5-1.3-0.5
	c-0.5,0-1,0.2-1.4,0.5L27.2,69l-20-7.8c-2.5-1-3.8-3.8-2.8-6.3c0.4-1.1,1.2-2,2.2-2.5L89.9,5.7c2-1.1,4.5-0.4,5.6,1.5
	C95.9,8,96.1,8.8,96,9.7L96,9.7z"/>
</svg>
