<svg width="18" height="22" viewBox="0 0 18 22" xmlns="http://www.w3.org/2000/svg" xmlns:xlink="http://www.w3.org/1999/xlink">
  <title>
    signature
  </title>
  <path d="M12.566 17.95c-.975 0-1.48.578-1.817.964-.295.336-.366.385-.545.385-.18 0-.252-.052-.544-.39-.336-.384-.846-.964-1.82-.964-.972 0-1.465.563-1.802.946-.333.328-.337.864-.01 1.197l.01.01c.33.33.866.33 1.197 0l.026-.027.035-.038c.294-.336.364-.387.544-.387.18 0 .25.05.543.387.336.385.846.965 1.82.965.973 0 1.48-.58 1.817-.965.295-.336.364-.387.544-.387.18 0 .252.05.546.387.337.385.847.965 1.82.965.974 0 1.48-.58 1.818-.963.33-.332.326-.868-.006-1.197-.332-.33-.868-.326-1.197.006-.024.024-.046.05-.067.076-.294.334-.364.385-.546.385-.182 0-.252-.05-.546-.387-.328-.39-.844-.97-1.82-.97m-9.65-5.36l5.503-8.1-1.02-.692c-.077-.052-.18-.032-.234.044L4.203 8.195c-.292.43-.876.54-1.305.248-.43-.292-.54-.877-.248-1.306L5.594 2.79c.633-.936 1.905-1.18 2.84-.548l.008.005 1.02.692.597-.882c.876-1.17 2.536-1.406 3.705-.528 1.09.817 1.38 2.327.674 3.49L7.286 15.563c-1.303 1.923-3.176 3.39-5.356 4.194-.357.13-.753-.053-.884-.41-.027-.073-.04-.15-.042-.225-.06-2.322.608-4.606 1.913-6.53" id="Page-1"/>
</svg>
