<?xml version="1.0" encoding="utf-8"?>
<!-- Generator: Adobe Illustrator 21.1.0, SVG Export Plug-In . SVG Version: 6.00 Build 0)  -->
<svg version="1.1" id="Layer_1" xmlns="http://www.w3.org/2000/svg" xmlns:xlink="http://www.w3.org/1999/xlink" x="0px" y="0px"
	 viewBox="0 0 18 22" style="enable-background:new 0 0 18 22;" xml:space="preserve">
<title>signature</title>
<g id="Page-1">
	<path d="M14.9,21.5c-1.2,0-1.8-0.7-2.2-1.1c-0.1-0.1-0.1-0.1-0.2-0.2c-0.1,0.1-0.1,0.2-0.2,0.2c-0.3,0.4-1,1.1-2.2,1.1
		c-1.2,0-1.9-0.7-2.2-1.1c-0.1-0.1-0.1-0.1-0.2-0.2c0,0-0.1,0.1-0.2,0.2l-0.1,0.1c-0.5,0.5-1.4,0.5-1.9,0c-0.5-0.5-0.5-1.4,0-1.9
		c0.3-0.4,1-1.1,2.2-1.1c1.2,0,1.8,0.7,2.2,1.1c0.1,0.1,0.1,0.1,0.2,0.2c0,0,0.1-0.1,0.2-0.2c0.3-0.4,1-1.1,2.2-1.1v0
		c1.2,0,1.9,0.8,2.2,1.1c0.1,0.1,0.1,0.1,0.2,0.2c0.1-0.1,0.1-0.2,0.2-0.2c0,0,0.1-0.1,0.1-0.1c0.3-0.3,0.6-0.4,1-0.4c0,0,0,0,0,0
		c0.4,0,0.7,0.1,0.9,0.4c0.3,0.3,0.4,0.6,0.4,1c0,0.4-0.1,0.7-0.4,1C16.7,20.8,16.1,21.5,14.9,21.5z M12.6,19.1
		c0.4,0,0.6,0.2,0.9,0.6c0.3,0.4,0.7,0.8,1.4,0.8c0.7,0,1.1-0.4,1.4-0.8c0.1-0.1,0.1-0.2,0.1-0.3c0-0.1,0-0.2-0.1-0.2
		c-0.1-0.1-0.1-0.1-0.2-0.1c-0.1,0-0.2,0-0.2,0.1c-0.3,0.4-0.5,0.6-1,0.6c-0.4,0-0.6-0.2-0.9-0.6c-0.3-0.4-0.7-0.8-1.4-0.8v0
		c-0.7,0-1.1,0.4-1.4,0.8c-0.3,0.4-0.5,0.6-0.9,0.6c-0.4,0-0.6-0.2-0.9-0.6c-0.3-0.4-0.7-0.8-1.4-0.8c-0.7,0-1.1,0.4-1.4,0.8
		c-0.2,0.2-0.2,0.4,0,0.5c0.1,0.1,0.4,0.1,0.5,0c0.3-0.4,0.5-0.6,1-0.6c0.4,0,0.6,0.2,0.9,0.6c0.3,0.4,0.7,0.8,1.4,0.8
		c0.7,0,1.1-0.4,1.4-0.8C11.9,19.4,12.1,19.1,12.6,19.1z M1.7,20.3c-0.5,0-0.9-0.3-1.1-0.8c0-0.1-0.1-0.2-0.1-0.4
		c-0.1-2.4,0.6-4.8,2-6.8l0.8,0.6c-1.3,1.8-1.9,4-1.8,6.2c0,0.2,0.2,0.2,0.3,0.2c2.1-0.8,3.9-2.2,5.1-4L14,4.7
		c0.6-0.9,0.3-2.1-0.6-2.8c-0.5-0.3-1-0.5-1.6-0.4c-0.6,0.1-1.1,0.4-1.4,0.8L9.6,3.6l-1.4-1C7.4,2.2,6.5,2.4,6,3.1L3.1,7.4
		C3,7.5,3,7.6,3,7.7C3,7.9,3.1,8,3.2,8c0.1,0.1,0.2,0.1,0.3,0.1c0.1,0,0.2-0.1,0.3-0.2l3-4.4C7,3.3,7.4,3.2,7.7,3.4l1.4,1l-5.8,8.5
		l-0.8-0.6l5.2-7.7L7.4,4.4L4.6,8.5C4.4,8.8,4.1,9,3.7,9.1c-0.4,0.1-0.8,0-1.1-0.2C2.3,8.6,2.1,8.3,2,7.9C1.9,7.6,2,7.2,2.2,6.9
		l2.9-4.3C6,1.3,7.6,1,8.7,1.8l0.6,0.4l0.3-0.5c0.5-0.7,1.3-1.1,2.1-1.2c0.8-0.1,1.7,0.1,2.3,0.6c1.3,1,1.6,2.8,0.8,4.1L7.7,15.8
		c-1.4,2-3.3,3.5-5.6,4.4C2,20.3,1.8,20.3,1.7,20.3z"/>
</g>
</svg>
