<?xml version="1.0" encoding="utf-8"?>
<!-- Generator: Adobe Illustrator 21.1.0, SVG Export Plug-In . SVG Version: 6.00 Build 0)  -->
<svg version="1.1"
	 id="Layer_1" xmlns:cc="http://creativecommons.org/ns#" xmlns:dc="http://purl.org/dc/elements/1.1/" xmlns:inkscape="http://www.inkscape.org/namespaces/inkscape" xmlns:rdf="http://www.w3.org/1999/02/22-rdf-syntax-ns#" xmlns:sodipodi="http://sodipodi.sourceforge.net/DTD/sodipodi-0.dtd" xmlns:svg="http://www.w3.org/2000/svg"
	 xmlns="http://www.w3.org/2000/svg" xmlns:xlink="http://www.w3.org/1999/xlink" x="0px" y="0px" viewBox="0 0 38 50"
	 style="enable-background:new 0 0 38 50;" xml:space="preserve">
<g transform="translate(0,-952.36218)">
	<path d="M18.9,952.4c-0.5,0-0.9,0.2-1.3,0.6l-17,16c-0.8,0.7-0.9,1.9-0.1,2.8c0.7,0.8,2.1,0.8,2.8,0.1L17,959v33.4c0,1.1,0.9,2,2,2
		s2-0.9,2-2V959l13.6,12.8c0.8,0.7,2.1,0.7,2.8-0.1c0.8-0.8,0.7-2.1-0.1-2.8l-17-16C19.9,952.5,19.4,952.3,18.9,952.4L18.9,952.4z
		 M2,998.4c-1.1,0-2,0.9-2,2s0.9,2,2,2h34c1.1,0,2-0.9,2-2s-0.9-2-2-2C36,998.4,2,998.4,2,998.4z"/>
</g>
</svg>
